<?xml version="1.0" encoding="UTF-8"?><svg xmlns="http://www.w3.org/2000/svg" xmlns:xlink="http://www.w3.org/1999/xlink" viewBox="0 0 198 181"><defs><style>.e{fill:url(#d);}.f{fill:#fff;}</style><linearGradient id="d" x1="4.25" y1="185.25" x2="193.75" y2="-4.25" gradientTransform="matrix(1, 0, 0, 1, 0, 0)" gradientUnits="userSpaceOnUse"><stop offset="0" stop-color="#f41f35"/><stop offset="1" stop-color="#ed5e78"/></linearGradient></defs><g id="a"/><g id="b"><g id="c"><g><rect class="e" width="198" height="181"/><path class="f" d="M127.97,110.76L66.53,35.31h-17.03v111.43h20.53V71.28l61.44,75.45h17.03V61.73h-20.53v49.03Zm9.84-56.45c3.12,0,5.68-1,7.69-3.01,2-2,3.01-4.48,3.01-7.42,0-2.76-1.03-5.06-3.07-6.88-2.05-1.83-4.59-2.74-7.62-2.74s-5.57,.96-7.62,2.87c-2.05,1.92-3.07,4.3-3.07,7.15s1.02,5.24,3.07,7.15c2.05,1.92,4.59,2.87,7.62,2.87Z"/></g></g></g></svg>